<svg width="29" height="29" viewBox="0 0 29 29" fill="none" xmlns="http://www.w3.org/2000/svg">
<path d="M5.68208 0C2.55705 0 0 2.55705 0 5.68208V23.3163C0 26.4414 2.55705 28.9984 5.68208 28.9984H23.3163C26.4414 28.9984 28.9984 26.4414 28.9984 23.3163V5.68208C28.9984 2.55705 26.4414 0 23.3163 0H5.68208Z" fill="#373F46"/>
<path d="M5.93672 14.3082L9.83445 15.7629L11.3431 20.6148C11.4396 20.9255 11.8196 21.0404 12.0718 20.8342L14.2445 19.063C14.4722 18.8774 14.7966 18.8682 15.0346 19.0409L18.9533 21.886C19.2232 22.0821 19.6054 21.9343 19.6731 21.6083L22.5437 7.79978C22.6176 7.44364 22.2677 7.14654 21.9286 7.2777L5.93215 13.4487C5.5374 13.6009 5.54084 14.1598 5.93672 14.3082ZM11.1 14.9885L18.7176 10.2968C18.8545 10.2127 18.9954 10.3978 18.8778 10.5069L12.591 16.3507C12.3701 16.5564 12.2275 16.8317 12.1872 17.1305L11.973 18.7176C11.9446 18.9295 11.647 18.9505 11.5885 18.7454L10.7649 15.8514C10.6705 15.5213 10.808 15.1687 11.1 14.9885Z" fill="#E9F1F6"/>
</svg>
