<svg width="30" height="29" viewBox="0 0 30 29" fill="none" xmlns="http://www.w3.org/2000/svg">
<path d="M6.68049 0C3.55546 0 0.998413 2.55705 0.998413 5.68207V23.3163C0.998413 26.4414 3.55546 28.9984 6.68049 28.9984H24.3148C27.4398 28.9984 29.9968 26.4414 29.9968 23.3163V5.68207C29.9968 2.55705 27.4398 0 24.3148 0H6.68049Z" fill="#373F46"/>
<g clip-path="url(#clip0)">
<path d="M15.9026 6.4082H15.8983C11.2349 6.4082 7.44257 10.1808 7.44257 14.8197C7.44257 16.6597 8.03885 18.3652 9.05273 19.7499L7.99867 22.8748L11.2497 21.8412C12.5871 22.7224 14.1824 23.2313 15.9026 23.2313C20.566 23.2313 24.3583 19.4576 24.3583 14.8197C24.3583 10.1818 20.566 6.4082 15.9026 6.4082ZM20.824 18.2863C20.6199 18.8594 19.8101 19.3346 19.1641 19.4734C18.7222 19.567 18.1449 19.6416 16.2018 18.8404C13.7162 17.8163 12.1155 15.3044 11.9908 15.1415C11.8713 14.9785 10.9864 13.8114 10.9864 12.6043C10.9864 11.3973 11.6028 10.8095 11.8512 10.5572C12.0553 10.3501 12.3925 10.2554 12.716 10.2554C12.8207 10.2554 12.9148 10.2607 12.9994 10.2649C13.2478 10.2754 13.3726 10.2901 13.5365 10.6802C13.7405 11.1691 14.2374 12.3762 14.2966 12.5002C14.3569 12.6243 14.4171 12.7926 14.3326 12.9555C14.2533 13.1238 14.1835 13.1984 14.0587 13.3414C13.934 13.4844 13.8156 13.5937 13.6908 13.7473C13.5766 13.8808 13.4477 14.0238 13.5914 14.2709C13.7352 14.5127 14.2321 15.3192 14.9637 15.9668C15.9078 16.8027 16.6733 17.0698 16.9471 17.1834C17.1511 17.2675 17.3943 17.2475 17.5434 17.0898C17.7326 16.8869 17.9663 16.5504 18.2042 16.2192C18.3733 15.9816 18.5869 15.9521 18.811 16.0362C19.0394 16.1151 20.2478 16.7092 20.4962 16.8322C20.7447 16.9563 20.9086 17.0151 20.9688 17.1192C21.028 17.2233 21.028 17.7122 20.824 18.2863Z" fill="#E9F1F6"/>
</g>
<defs>
<clipPath id="clip0">
<rect width="16.9157" height="16.823" fill="white" transform="translate(7.44257 6.4082)"/>
</clipPath>
</defs>
</svg>
