<svg width="31" height="29" viewBox="0 0 31 29" fill="none" xmlns="http://www.w3.org/2000/svg">
<path d="M6.07427 0C2.73355 0 0 2.55719 0 5.68238V23.3176C0 26.4428 2.73355 29 6.07427 29H24.9257C28.2665 29 31 26.4428 31 23.3176V5.68238C31 2.55719 28.2665 0 24.9257 0H6.07427ZM9.55166 6.5432H15.6666C16.9366 6.5432 17.9012 6.58666 18.556 6.68003C19.2108 6.76873 19.8259 6.95886 20.3974 7.24819C21.0158 7.55987 21.4804 7.97959 21.7864 8.49955C22.0923 9.02259 22.2475 9.62377 22.2475 10.3073C22.2475 11.0973 22.0368 11.7995 21.6121 12.4159C21.1914 13.0323 20.6078 13.4856 19.8656 13.7787V13.863C20.9336 14.0751 21.7901 14.5019 22.4325 15.1515C23.0759 15.8018 23.3972 16.6772 23.3972 17.7766C23.3972 18.5812 23.2349 19.291 22.9091 19.8997C22.5834 20.5084 22.1473 21.0099 21.5956 21.4111C20.9449 21.8894 20.2307 22.227 19.4482 22.4314C18.6705 22.6351 17.6827 22.7368 16.4803 22.7368H9.55169V6.54323L9.55166 6.5432ZM13.8766 9.5117V12.9387H14.4238C15.166 12.9387 15.6905 12.9316 15.9882 12.917C16.2859 12.9024 16.5957 12.8278 16.9132 12.6904C17.2579 12.5385 17.5007 12.3274 17.631 12.0598C17.7621 11.789 17.8295 11.4763 17.8295 11.1237C17.8295 10.8607 17.758 10.5928 17.6145 10.3182C17.4718 10.0435 17.2502 9.84278 16.9442 9.72013C16.6589 9.60133 16.3215 9.5387 15.9281 9.52713C15.5356 9.51553 14.9523 9.51173 14.1788 9.51173H13.8765L13.8766 9.5117ZM13.8766 15.7124V19.7665H14.111C15.2425 19.7665 16.0239 19.7585 16.456 19.7438C16.8882 19.7292 17.3333 19.6332 17.7811 19.4511C18.1786 19.2914 18.464 19.0574 18.6471 18.7489C18.8294 18.441 18.9203 18.0919 18.9203 17.7023C18.9203 17.2008 18.8143 16.8112 18.5958 16.5288C18.378 16.2434 18.0523 16.0314 17.6194 15.8864C17.3571 15.7899 16.9918 15.7377 16.5316 15.7269C16.0714 15.7161 15.453 15.7124 14.6786 15.7124H13.8766H13.8766Z" fill="#373F46"/>
</svg>
