<svg width="30" height="29" viewBox="0 0 30 29" fill="none" xmlns="http://www.w3.org/2000/svg">
<path d="M6.6789 0C3.55387 0 0.996826 2.55705 0.996826 5.68208V23.3163C0.996826 26.4414 3.55387 28.9984 6.6789 28.9984H24.3132C27.4382 28.9984 29.9952 26.4414 29.9952 23.3163V5.68208C29.9952 2.55705 27.4382 0 24.3132 0H6.6789Z" fill="#373F46"/>
<path d="M15.8518 6.44434C15.8036 6.44417 15.7557 6.45382 15.7111 6.47273C15.6664 6.49164 15.6259 6.51944 15.5917 6.55454C15.5575 6.58963 15.5304 6.63133 15.5119 6.67725C15.4934 6.72317 15.4838 6.77239 15.4838 6.82211C15.4838 6.92264 15.5226 7.01905 15.5916 7.09013C15.6606 7.16121 15.7542 7.20114 15.8518 7.20114C16.7638 7.18323 17.6701 7.35152 18.5185 7.69632C19.367 8.04111 20.1407 8.55558 20.7951 9.21003C22.1322 10.5493 22.7835 12.3434 22.808 14.6934C22.808 14.7432 22.8176 14.7925 22.836 14.8385C22.8545 14.8844 22.8816 14.9262 22.9158 14.9614C22.95 14.9966 22.9906 15.0245 23.0352 15.0436C23.0798 15.0626 23.1277 15.0724 23.176 15.0724V15.0611C23.2736 15.0611 23.3672 15.0211 23.4362 14.9501C23.5052 14.879 23.544 14.7826 23.544 14.682C23.5895 13.5769 23.4161 12.4737 23.0344 11.4398C22.6527 10.4059 22.0707 9.46281 21.3238 8.66801C19.8641 7.20241 18.023 6.44434 15.8518 6.44434ZM11.0017 7.31612C10.7409 7.27783 10.4751 7.33124 10.2473 7.46773H10.2326C9.72971 7.77096 9.26604 8.15 8.82446 8.65538C8.49327 9.05968 8.30805 9.46272 8.25898 9.85439C8.23012 10.0841 8.25106 10.3175 8.32031 10.5379L8.34484 10.5506C8.72293 11.6954 9.21626 12.7964 9.8168 13.8355C10.5952 15.2908 11.5516 16.6372 12.6626 17.8419L12.6994 17.8925L12.7484 17.9304L12.7852 17.9683L12.822 18.0062C13.9962 19.1534 15.3069 20.1425 16.7227 20.95C18.3419 21.8597 19.3256 22.2893 19.9144 22.4662V22.4788C20.0861 22.5293 20.2432 22.5546 20.4026 22.5546C20.9052 22.5168 21.381 22.3069 21.7544 21.9582C22.2327 21.516 22.613 21.0258 22.8951 20.5078V20.4952C23.1772 19.9519 23.0791 19.4326 22.6743 19.0788C21.8585 18.3438 20.9753 17.6921 20.0371 17.1331C19.4115 16.7794 18.7736 16.9941 18.5161 17.3479L17.9641 18.0668C17.6819 18.4206 17.1668 18.37 17.1668 18.37L17.152 18.3827C13.325 17.3719 12.3069 13.3807 12.3069 13.3807C12.3069 13.3807 12.2578 12.8374 12.6135 12.5594L13.3004 11.9909C13.6316 11.7129 13.8647 11.0559 13.509 10.4116C12.967 9.4447 12.3343 8.53488 11.6199 7.69515C11.4646 7.49666 11.2452 7.36217 11.0017 7.31612ZM16.4884 8.44059C16.3908 8.44093 16.2974 8.48118 16.2286 8.5525C16.1598 8.62382 16.1214 8.72036 16.1217 8.82089C16.122 8.92141 16.1611 9.01769 16.2303 9.08854C16.2996 9.15938 16.3933 9.199 16.4909 9.19866C17.7184 9.22061 18.8874 9.74313 19.7415 10.6516C20.1268 11.0894 20.423 11.6023 20.6126 12.16C20.8022 12.7177 20.8814 13.3089 20.8454 13.8987C20.8458 13.999 20.8847 14.0951 20.9536 14.1659C21.0226 14.2367 21.116 14.2765 21.2134 14.2765L21.2257 14.2916C21.2741 14.2916 21.3221 14.2818 21.3668 14.2627C21.4115 14.2435 21.4521 14.2155 21.4863 14.1802C21.5205 14.1448 21.5476 14.1029 21.566 14.0568C21.5844 14.0106 21.5938 13.9612 21.5937 13.9113C21.6305 12.4078 21.1766 11.1444 20.2812 10.1336C19.3857 9.12285 18.1346 8.5543 16.54 8.44059C16.5228 8.43935 16.5056 8.43935 16.4884 8.44059ZM17.0895 10.4861C17.0403 10.4846 16.9913 10.4931 16.9452 10.5111C16.8992 10.5292 16.8571 10.5563 16.8213 10.5911C16.7855 10.6259 16.7566 10.6676 16.7365 10.7139C16.7163 10.7601 16.7052 10.81 16.7037 10.8607C16.7023 10.9114 16.7105 10.9619 16.728 11.0093C16.7455 11.0567 16.7719 11.1001 16.8057 11.137C16.8394 11.1739 16.8799 11.2036 16.9248 11.2244C16.9698 11.2451 17.0182 11.2566 17.0674 11.2581C18.2818 11.3213 18.8706 11.953 18.9442 13.2543C18.9473 13.3527 18.9875 13.4458 19.0562 13.5142C19.1248 13.5826 19.2166 13.6208 19.3121 13.6207H19.3244C19.3738 13.6192 19.4224 13.6073 19.4673 13.586C19.5122 13.5646 19.5524 13.5342 19.5856 13.4964C19.6188 13.4587 19.6443 13.4144 19.6606 13.3663C19.6768 13.3182 19.6834 13.2672 19.6801 13.2164C19.5943 11.5234 18.6988 10.5746 17.1042 10.4861C17.0993 10.486 17.0944 10.486 17.0895 10.4861Z" fill="#E9F1F6"/>
</svg>
